<?xml version="1.0" standalone="no"?>
<!DOCTYPE svg PUBLIC "-//W3C//DTD SVG 20010904//EN"
 "http://www.w3.org/TR/2001/REC-SVG-20010904/DTD/svg10.dtd">
<svg version="1.0" xmlns="http://www.w3.org/2000/svg"
 width="675.000000pt" height="370.000000pt" viewBox="0 0 675.000000 370.000000"
 preserveAspectRatio="xMidYMid meet">

<g transform="translate(0.000000,370.000000) scale(0.100000,-0.100000)"
fill="#000000" stroke="none">
<path d="M3979 3537 c-40 -27 -75 -76 -89 -125 -11 -42 -74 -591 -68 -597 2
-2 71 -5 153 -6 119 -1 150 2 152 12 18 109 63 572 58 598 -22 119 -121 176
-206 118z"/>
<path d="M2560 2923 c0 -16 8 -44 18 -63 l17 -35 105 -6 c100 -5 97 -5 -56 -7
-177 -2 -226 -13 -285 -62 -40 -32 -94 -127 -104 -180 -6 -32 -4 -37 22 -47
22 -8 -23 -11 -205 -12 l-234 -1 -29 -29 c-29 -29 -29 -30 -29 -155 0 -72 5
-136 11 -150 27 -59 -61 -56 1564 -56 1075 0 1492 3 1508 11 51 26 57 45 57
186 0 127 -1 133 -26 162 l-26 31 -246 1 c-143 1 -233 4 -214 9 18 4 36 10 39
13 3 3 -3 32 -13 64 -25 82 -97 153 -180 176 -68 19 -542 36 -1084 38 -168 1
-291 4 -275 8 31 7 33 14 14 63 -12 31 -17 32 -172 53 -169 22 -177 21 -177
-12z m1712 -197 c48 -21 95 -67 114 -111 8 -19 14 -37 14 -40 0 -3 -421 -5
-935 -5 l-935 0 0 24 c0 33 34 73 73 84 35 11 166 16 797 32 606 15 611 15
620 31 11 19 200 8 252 -15z m-125 -213 c-20 -2 -52 -2 -70 0 -17 2 0 4 38 4
39 0 53 -2 32 -4z m-2265 -57 c-13 -7 -32 -26 -43 -42 l-19 -29 0 27 c0 34 24
58 58 58 l27 -1 -23 -13z m2988 -5 c5 -11 10 -74 10 -140 0 -113 -1 -121 -22
-135 -20 -14 -164 -16 -1346 -16 -1455 0 -1384 -3 -1471 60 -75 55 -78 141 -7
195 76 58 -17 54 1463 55 1337 0 1362 0 1373 -19z m-2970 -288 c0 -9 -38 -1
-58 13 -14 10 -22 25 -22 45 l0 30 40 -42 c22 -23 40 -44 40 -46z"/>
<path d="M2030 2095 c0 -8 16 -114 35 -235 19 -121 35 -223 35 -225 0 -3 558
-5 1240 -5 l1239 0 5 33 c8 45 46 402 46 427 0 20 -2 20 -1300 20 -1137 0
-1300 -2 -1300 -15z m2553 -32 c2 -5 -5 -95 -16 -200 l-21 -193 -176 0 -177 0
-6 59 c-9 107 -76 213 -155 246 -73 31 -225 38 -947 40 -396 2 -782 -1 -859
-6 -76 -6 -139 -9 -141 -7 -1 2 -5 18 -8 36 l-6 32 1254 0 c689 0 1256 -3
1258 -7z"/>
<path d="M1950 1607 c-52 -26 -53 -32 -10 -453 21 -214 56 -561 76 -771 l38
-383 88 0 c100 0 93 -10 78 110 -28 206 -62 768 -78 1258 l-7 212 1296 0
c1245 0 1297 -1 1313 -18 15 -18 10 -67 -79 -780 -52 -418 -95 -765 -95 -771
0 -6 8 -11 18 -11 17 0 27 68 115 772 104 834 102 807 47 835 -37 19 -2763 19
-2800 0z m120 -37 c0 -5 -6 -10 -14 -10 -25 0 -74 -49 -81 -80 -4 -16 -2 -71
4 -122 6 -51 25 -255 41 -453 17 -198 33 -379 36 -402 4 -29 3 -43 -5 -43 -6
0 -11 18 -11 41 0 23 -11 152 -25 288 -14 135 -36 361 -50 501 l-26 255 22 18
c23 18 109 24 109 7z m-13 -1172 c-3 -8 -6 -5 -6 6 -1 11 2 17 5 13 3 -3 4
-12 1 -19z"/>
<path d="M3324 1086 c-64 -20 -149 -82 -199 -144 -59 -73 -121 -201 -143 -291
-9 -39 -20 -71 -24 -71 -5 0 -20 7 -33 16 -38 25 -138 30 -184 9 -87 -39 -105
-171 -41 -301 38 -77 131 -166 198 -188 52 -18 124 -21 153 -6 15 9 26 6 52
-13 78 -58 170 -65 264 -22 32 14 66 33 76 42 17 16 20 16 54 -2 27 -15 56
-20 113 -20 68 0 84 4 156 39 152 75 262 219 272 357 6 90 -19 147 -79 182
-65 37 -113 42 -189 18 -36 -12 -66 -21 -67 -21 -2 0 -3 17 -3 38 0 20 -7 68
-15 107 -45 212 -194 323 -361 271z m24 -43 c-66 -133 -80 -224 -72 -473 6
-179 5 -202 -15 -279 -21 -82 -67 -181 -88 -188 -19 -7 -73 48 -107 110 -64
116 -82 281 -46 423 44 173 157 337 270 392 47 23 64 27 58 15z m145 -7 c87
-36 152 -162 164 -316 5 -68 2 -85 -30 -182 -53 -157 -139 -321 -197 -376 -44
-42 -162 -93 -148 -64 101 199 120 304 98 534 -16 170 5 314 58 396 17 26 14
26 55 8z m-150 -176 c-12 -77 -13 -116 -4 -206 15 -149 14 -207 -5 -305 -13
-70 -64 -209 -76 -209 -3 0 10 39 26 88 l31 87 1 260 c0 143 4 274 8 290 14
53 28 96 31 93 1 -2 -4 -46 -12 -98z m539 -200 c5 0 -16 -23 -47 -52 -59 -54
-114 -128 -158 -213 -25 -49 -84 -125 -73 -95 3 8 16 43 31 77 14 34 37 105
52 157 27 95 27 96 67 111 48 17 86 24 104 19 8 -2 18 -4 24 -4z m107 -81 c34
-99 -14 -224 -126 -329 -86 -81 -155 -113 -250 -118 -40 -2 -73 0 -73 4 1 5
26 27 57 49 55 40 122 122 161 200 48 96 168 225 208 225 7 0 17 -14 23 -31z
m-1069 -27 c22 -17 26 -29 32 -108 4 -49 11 -104 17 -121 15 -51 -4 -39 -23
15 -40 109 -58 147 -93 195 l-37 50 39 -6 c22 -4 51 -15 65 -25z m-144 -34
c41 -44 68 -92 89 -158 22 -69 58 -135 98 -177 17 -18 27 -36 23 -40 -12 -12
-97 17 -142 49 -79 57 -144 176 -144 265 0 35 24 93 38 93 5 0 22 -15 38 -32z"/>
</g>
</svg>
